<svg xmlns="http://www.w3.org/2000/svg" width="10" height="10" viewBox="0 0 10 10">
    <g data-name="그룹 338">
        <path data-name="사각형 309" style="fill:none;opacity:.1" d="M0 0h10v10H0z"/>
        <g data-name="그룹 303">
            <g data-name="그룹 304">
                <path data-name="패스 67" d="M1.845 8.5a.832.832 0 0 1-.645-.252.98.98 0 0 1-.232-.692 4.5 4.5 0 0 1 .227-1.2q.228-.76.455-1.38a3.1 3.1 0 0 0 .228-.827c0-.139-.045-.209-.136-.209Q1.4 3.939.649 5.276L0 4.9q1.424-2.4 2.615-2.4.813 0 .813 1.026a3.853 3.853 0 0 1-.194.959l-.7 1.994a1.454 1.454 0 0 0-.106.509c0 .151.058.227.174.227q.328 0 1.21-1.22l.407.378a5.029 5.029 0 0 1-1.241 1.546 2.116 2.116 0 0 1-1.133.581M4.222.944a1.1 1.1 0 0 1-.261.712.868.868 0 0 1-.707.319.819.819 0 0 1-.668-.266 1.012 1.012 0 0 1-.223-.673 1.06 1.06 0 0 1 .276-.721A.9.9 0 0 1 3.351 0 .781.781 0 0 1 4 .276a1.047 1.047 0 0 1 .218.668" style="fill:#111" transform="translate(2.889 .75)"/>
            </g>
        </g>
    </g>
</svg>
